<svg width="6233" height="4737" viewBox="0 0 6233 4737" fill="none" xmlns="http://www.w3.org/2000/svg">
<path d="M4288.05 558.164C3614.38 1015.3 3412.28 1891.07 3412.28 1891.07C3412.28 1891.07 3745.6 1420.36 4033.01 1198.15C4367.49 939.553 5009.83 731.393 5009.83 731.393C5009.83 731.393 4431.68 1023.58 4129.25 1299.2C3934.44 1476.75 3831.99 1587.89 3681.74 1804.45C3380.97 2237.99 3291.01 2520.15 3195.74 3065.17C3130.74 3437.03 3166.87 4032.37 3166.87 4032.37H3340.1C3340.1 4032.37 3313.53 3518.27 3364.16 3195.1C3439.22 2715.92 3782.8 2025.8 3782.8 2025.8C3782.8 2025.8 4778.7 2062.9 5293.74 1756.33C6102.14 1275.14 6232.06 72.1603 6232.06 72.1603C6232.06 72.1603 5216.75 -72.0254 4288.05 558.164Z" fill="#52A02B"/>
<path d="M2873.35 1356.96C2498.28 880.581 2218.92 813.214 2218.92 813.214C2218.92 813.214 2588.78 1137.47 2762.67 1395.46C2937.48 1654.81 3029.38 1817.26 3099.51 2122.06C3155.64 2366.06 3138 2762.04 3138 2762.04L2921.46 2160.55C2921.46 2160.55 2429.04 2053.88 2165.99 1881.46C1787.48 1633.35 1587.54 1399.57 1453.83 967.196C1342.24 606.343 1453.83 0 1453.83 0C1453.83 0 2430.65 134.734 3003.27 1005.69C3248.49 1378.68 3248.67 2122.06 3248.67 2122.06C3248.67 2122.06 3079.22 1618.45 2873.35 1356.96Z" fill="#80CE22"/>
<path d="M1351.4 3878.83H1403.61C1507.56 3878.83 1588.84 3853.65 1647.46 3803.27C1706.07 3752.9 1735.38 3683.29 1735.38 3594.45C1735.38 3505.61 1706.07 3435.78 1647.46 3384.95C1588.84 3334.12 1507.56 3308.7 1403.61 3308.7H1351.4V3878.83ZM1116.48 4092.46V3096.45H1380.94C1566.86 3096.45 1712.49 3140.87 1817.81 3229.71C1923.14 3318.55 1975.8 3440.13 1975.8 3594.45C1975.8 3686.96 1954.96 3769.16 1913.29 3841.05C1871.62 3912.49 1810.48 3971.34 1729.89 4017.59C1684.09 4044.15 1634.18 4063.38 1580.14 4075.29C1526.56 4086.74 1460.16 4092.46 1380.94 4092.46H1116.48Z" fill="#1B1B1B"/>
<path d="M2241.19 4092.46V3096.45H2854.6V3301.83H2471.99V3481.8H2799.65V3685.81H2471.99V3882.95H2860.09V4092.46H2241.19Z" fill="#1B1B1B"/>
<path d="M3856.99 3594.45C3856.99 3681 3882.17 3753.59 3932.55 3812.2C3983.38 3870.36 4045.88 3899.44 4120.07 3899.44C4194.71 3899.44 4257.22 3870.36 4307.6 3812.2C4357.97 3754.04 4383.16 3681.46 4383.16 3594.45C4383.16 3506.99 4357.97 3434.17 4307.6 3376.02C4257.22 3317.4 4194.71 3288.09 4120.07 3288.09C4045.88 3288.09 3983.38 3317.4 3932.55 3376.02C3882.17 3434.17 3856.99 3506.99 3856.99 3594.45ZM3612.45 3594.45C3612.45 3520.72 3625.04 3451.81 3650.23 3387.69C3675.87 3323.12 3713.42 3265.42 3762.88 3214.59C3809.59 3166.05 3863.85 3128.96 3925.68 3103.31C3987.5 3077.21 4052.3 3064.16 4120.07 3064.16C4187.85 3064.16 4252.64 3077.21 4314.46 3103.31C4376.74 3129.42 4431.93 3166.97 4480.01 3215.97C4528.55 3264.97 4565.19 3321.75 4589.91 3386.32C4615.1 3450.43 4627.69 3519.81 4627.69 3594.45C4627.69 3656.73 4618.99 3715.35 4601.59 3770.3C4584.19 3825.25 4558.32 3875.4 4523.97 3920.73C4475.43 3985.3 4415.67 4035.45 4344.69 4071.17C4274.17 4106.88 4199.29 4124.74 4120.07 4124.74C4052.75 4124.74 3988.18 4111.69 3926.36 4085.59C3865 4059.49 3810.5 4021.94 3762.88 3972.94C3713.42 3922.11 3675.87 3864.86 3650.23 3801.21C3625.04 3737.1 3612.45 3668.18 3612.45 3594.45Z" fill="#1B1B1B"/>
<path d="M4750.9 4092.46L5108.78 3577.28L4755.71 3096.45H5046.27L5251.65 3380.82L5444.67 3096.45H5703.64L5382.85 3556.67L5775.07 4092.46H5482.45L5240.66 3754.5L5011.23 4092.46H4750.9Z" fill="#1B1B1B"/>
<path d="M359.082 3087.58C331.744 3087.58 303.668 3084.62 274.853 3078.71C246.776 3072.8 218.7 3063.93 190.624 3052.11C144.815 3032.16 107.872 3005.93 79.7959 2973.43C51.7196 2941.65 31.4012 2905.45 18.8407 2864.81C6.28024 2824.18 0 2781.69 0 2737.36C0 2690.81 5.54138 2644.27 16.6241 2597.72C28.4458 2551.17 44.7005 2506.84 65.3883 2464.73C86.0761 2421.87 109.35 2383.82 135.21 2350.57C130.038 2331.36 125.605 2309.2 121.91 2284.08C118.955 2258.96 117.477 2233.47 117.477 2207.61C117.477 2168.45 121.91 2131.14 130.777 2095.67C133.732 2085.33 138.904 2080.15 146.292 2080.15C151.464 2080.15 154.05 2083.85 154.05 2091.24C154.05 2095.67 153.681 2099 152.942 2101.21C151.464 2112.29 149.987 2123.75 148.509 2135.57C147.77 2147.39 147.401 2159.58 147.401 2172.14C147.401 2197.26 148.878 2222.01 151.834 2246.4C154.789 2270.78 158.114 2293.31 161.808 2314C215.744 2243.81 277.438 2191.72 346.89 2157.73C417.081 2123.01 490.597 2105.64 567.437 2105.64C587.386 2105.64 606.597 2106.75 625.068 2108.97C684.176 2115.62 732.571 2130.4 770.252 2153.3C807.933 2175.47 835.64 2202.8 853.373 2235.31C871.844 2267.82 881.08 2302.18 881.08 2338.38C881.08 2373.85 872.952 2408.94 856.698 2443.67C840.443 2478.4 816.8 2510.17 785.768 2538.98C754.736 2567.06 716.685 2589.96 671.615 2607.69C627.284 2624.69 577.042 2633.18 520.89 2633.18C508.329 2633.18 495.769 2632.81 483.208 2632.08C470.648 2631.34 456.979 2629.86 442.202 2627.64C383.833 2618.78 330.636 2599.94 282.61 2571.12C234.585 2542.31 195.795 2497.97 166.241 2438.13C160.331 2445.52 152.203 2460.66 141.859 2483.57C131.515 2505.73 121.172 2532.7 110.828 2564.47C100.484 2596.24 91.6175 2630.97 84.229 2668.65C76.8405 2705.59 73.1462 2742.9 73.1462 2780.59C73.1462 2816.79 77.9488 2851.88 87.5538 2885.87C97.1589 2919.12 113.783 2948.3 137.426 2973.43C161.069 2999.28 193.209 3018.5 233.846 3031.06C253.795 3036.97 274.483 3041.4 295.91 3044.35C317.336 3047.31 339.133 3048.79 361.298 3048.79C404.151 3048.79 446.635 3043.25 488.75 3032.16C530.864 3021.08 570.023 3004.83 606.227 2983.4C654.252 2955.32 691.195 2922.81 717.055 2885.87C742.914 2848.19 766.927 2806.08 789.093 2759.53C792.048 2752.14 796.112 2748.45 801.284 2748.45C804.978 2748.45 806.825 2751.03 806.825 2756.2C806.825 2759.9 805.347 2764.33 802.392 2769.5C786.876 2802.01 771.36 2831.94 755.844 2859.27C740.328 2885.87 722.227 2910.62 701.539 2933.53C680.851 2956.43 654.622 2978.97 622.851 3001.13C586.648 3026.25 546.011 3046.94 500.941 3063.2C455.871 3079.45 408.585 3087.58 359.082 3087.58ZM514.24 2604.37C565.221 2604.37 610.291 2596.98 649.45 2582.2C688.609 2566.69 721.488 2546.74 748.086 2522.36C775.424 2497.24 795.742 2469.53 809.042 2439.24C823.08 2408.94 830.099 2378.28 830.099 2347.25C830.099 2316.96 823.08 2288.14 809.042 2260.8C795.003 2233.47 773.577 2210.19 744.762 2190.98C716.685 2171.03 680.482 2158.1 636.15 2152.19C619.896 2149.98 603.641 2148.87 587.386 2148.87C537.145 2148.87 487.642 2159.58 438.877 2181.01C390.852 2201.7 345.413 2231.25 302.559 2269.67C259.706 2307.35 221.655 2351.68 188.407 2402.66C214.267 2466.94 250.47 2514.23 297.018 2544.52C344.304 2574.82 398.241 2593.66 458.826 2601.04C478.036 2603.26 496.508 2604.37 514.24 2604.37Z" fill="#52A02B"/>
<path d="M842.143 2976.75C811.111 2976.75 790.054 2968.62 778.971 2952.37C767.888 2935.37 762.347 2915.43 762.347 2892.52C762.347 2868.88 765.672 2844.5 772.321 2819.37C778.971 2794.25 784.882 2773.2 790.054 2756.2C801.875 2714.83 816.652 2670.87 834.385 2624.32C852.856 2577.03 872.805 2530.85 894.232 2485.78C916.397 2439.97 938.193 2398.97 959.62 2362.77C976.613 2333.95 994.715 2312.52 1013.93 2298.48C1033.87 2283.71 1051.24 2276.32 1066.01 2276.32C1077.84 2276.32 1087.07 2280.75 1093.72 2289.62C1101.11 2297.75 1104.8 2310.31 1104.8 2327.3C1104.8 2339.12 1102.59 2353.16 1098.15 2369.41C1094.46 2385.67 1087.81 2404.14 1078.21 2424.83C1052.35 2482.46 1021.31 2540.09 985.11 2597.72C949.645 2655.35 904.576 2709.29 849.901 2759.53C846.945 2769.13 842.882 2780.59 837.71 2793.88C833.276 2806.44 829.213 2819.37 825.518 2832.67C821.085 2852.62 818.869 2869.62 818.869 2883.65C818.869 2906.56 823.302 2923.92 832.168 2935.74C841.773 2946.83 853.225 2952.37 866.525 2952.37C878.346 2952.37 890.907 2948.3 904.206 2940.18C917.505 2931.31 930.066 2918.75 941.888 2902.5C959.62 2876.64 975.505 2850.41 989.543 2823.81C1004.32 2796.47 1015.4 2775.41 1022.79 2760.64C1027.22 2752.51 1032.03 2748.45 1037.2 2748.45C1040.89 2748.45 1042.74 2750.66 1042.74 2755.09C1042.74 2758.79 1041.63 2762.85 1039.42 2767.29C1032.77 2782.06 1023.9 2801.27 1012.82 2824.92C1002.47 2847.82 989.174 2871.09 972.919 2894.74C957.403 2917.64 938.563 2937.22 916.397 2953.48C894.971 2968.99 870.219 2976.75 842.143 2976.75ZM858.767 2724.06C885.365 2696.73 911.225 2665.32 936.346 2629.86C961.467 2593.66 984.741 2556.34 1006.17 2517.92C1028.33 2478.76 1046.8 2441.82 1061.58 2407.1C1066.75 2396.01 1070.82 2383.82 1073.77 2370.52C1077.47 2357.22 1079.31 2346.14 1079.31 2337.27C1079.31 2326.93 1076.73 2321.76 1071.56 2321.76C1068.6 2321.76 1064.17 2324.71 1058.26 2330.62C1052.35 2335.8 1044.59 2345.03 1034.98 2358.33C1020.94 2376.8 1005.43 2401.92 988.435 2433.69C972.18 2465.47 955.556 2499.45 938.563 2535.66C921.569 2571.86 906.053 2606.96 892.015 2640.94C877.977 2674.19 866.894 2701.9 858.767 2724.06Z" fill="#52A02B"/>
<path d="M1146.8 2523.47C1135.71 2523.47 1126.48 2519.77 1119.09 2512.38C1112.44 2504.25 1109.12 2494.65 1109.12 2483.57C1109.12 2469.53 1114.66 2457.34 1125.74 2446.99C1136.82 2436.65 1149.01 2431.48 1162.31 2431.48C1174.13 2431.48 1183.74 2435.17 1191.13 2442.56C1198.52 2449.95 1202.21 2458.82 1202.21 2469.16C1202.21 2483.2 1196.67 2495.76 1185.59 2506.84C1174.5 2517.92 1161.57 2523.47 1146.8 2523.47ZM1057.03 2973.43C1029.69 2973.43 1010.48 2965.67 999.397 2950.15C988.314 2933.9 982.772 2915.43 982.772 2894.74C982.772 2883.65 983.881 2872.57 986.097 2861.49C989.053 2849.67 992.378 2838.95 996.072 2829.35L1070.33 2639.83C1072.54 2633.92 1073.65 2628.75 1073.65 2624.32C1073.65 2616.93 1071.8 2610.65 1068.11 2605.48C1064.42 2599.57 1061.83 2595.5 1060.35 2593.29L1121.31 2591.07C1132.39 2590.33 1140.15 2591.81 1144.58 2595.5C1149.75 2598.46 1152.34 2602.15 1152.34 2606.59C1152.34 2611.02 1149.75 2619.15 1144.58 2630.97L1052.59 2847.08C1052.59 2847.08 1050.38 2851.88 1045.94 2861.49C1042.25 2870.36 1040.03 2876.27 1039.29 2879.22C1037.08 2890.3 1035.6 2897.32 1034.86 2900.28C1034.12 2903.23 1033.75 2905.08 1033.75 2905.82C1033.75 2906.56 1033.75 2909.51 1033.75 2914.69C1033.75 2924.29 1035.97 2932.42 1040.4 2939.07C1045.57 2945.72 1054.07 2949.04 1065.89 2949.04C1073.28 2949.04 1081.78 2946.83 1091.38 2942.39C1100.99 2937.96 1108.01 2933.53 1112.44 2929.09C1130.91 2909.88 1149.01 2884.76 1166.75 2853.73C1185.22 2821.96 1202.21 2790.56 1217.73 2759.53C1220.68 2752.14 1224.38 2748.45 1228.81 2748.45C1232.5 2748.45 1234.35 2751.03 1234.35 2756.2C1234.35 2759.16 1233.24 2763.59 1231.03 2769.5C1223.64 2785.02 1214.4 2804.23 1203.32 2827.13C1192.24 2850.04 1178.94 2872.94 1163.42 2895.85C1148.64 2918.01 1132.39 2936.48 1114.66 2951.26C1096.92 2966.04 1077.71 2973.43 1057.03 2973.43Z" fill="#52A02B"/>
<path d="M1113.31 2978.97C1140.64 2926.51 1166.5 2874.05 1190.89 2821.59C1215.27 2768.39 1240.02 2718.15 1265.14 2670.87C1279.92 2644.27 1292.11 2625.8 1301.71 2615.45C1312.06 2604.37 1325.73 2598.83 1342.72 2598.83C1348.63 2598.83 1354.91 2599.94 1361.56 2602.15C1368.21 2603.63 1374.86 2604.37 1381.51 2604.37C1385.94 2604.37 1389.27 2604 1391.48 2603.26C1381.14 2609.17 1367.84 2623.95 1351.59 2647.59C1335.33 2670.5 1318.71 2697.09 1301.71 2727.39C1284.72 2757.68 1269.57 2786.13 1256.27 2812.73C1270.31 2795.73 1284.72 2778.74 1299.5 2761.74C1315.01 2744.75 1332.01 2728.5 1350.48 2712.98C1366.73 2698.94 1383.73 2683.8 1401.46 2667.54C1419.93 2650.55 1438.03 2636.14 1455.76 2624.32C1473.5 2612.5 1489.01 2606.59 1502.31 2606.59C1507.48 2606.59 1510.81 2606.96 1512.29 2607.69C1526.32 2613.6 1533.34 2623.21 1533.34 2636.51C1533.34 2640.94 1531.5 2647.59 1527.8 2656.46C1518.2 2681.58 1505.64 2707.44 1490.12 2734.04C1475.34 2759.9 1461.31 2786.13 1448.01 2812.73C1459.09 2799.43 1472.76 2783.17 1489.01 2763.96C1506.01 2744.75 1523 2727.76 1539.99 2712.98C1556.25 2698.2 1576.94 2682.69 1602.06 2666.43C1627.18 2650.18 1651.93 2636.14 1676.31 2624.32C1700.69 2612.5 1720.27 2606.59 1735.05 2606.59C1740.22 2606.59 1743.92 2606.96 1746.13 2607.69C1746.13 2607.69 1742.07 2615.08 1733.94 2629.86C1725.81 2643.9 1715.47 2662.74 1702.91 2686.38C1691.09 2709.29 1678.9 2734.04 1666.34 2760.64C1653.78 2786.5 1642.32 2811.62 1631.98 2836C1622.37 2859.64 1616.09 2879.59 1613.14 2895.85C1610.92 2905.45 1609.81 2914.32 1609.81 2922.44C1609.81 2934.27 1612.03 2942.02 1616.46 2945.72C1620.9 2949.41 1625.7 2951.26 1630.87 2951.26C1645.65 2951.26 1660.8 2943.5 1676.31 2927.99C1691.83 2912.47 1706.6 2894 1720.64 2872.57C1735.42 2850.41 1748.35 2828.98 1759.43 2808.29C1770.51 2786.87 1778.64 2770.61 1783.81 2759.53C1788.25 2751.4 1792.68 2747.34 1797.11 2747.34C1801.55 2747.34 1803.76 2750.29 1803.76 2756.2C1803.76 2759.9 1802.65 2763.96 1800.44 2768.39C1791.57 2785.39 1780.86 2805.71 1768.3 2829.35C1756.48 2852.99 1742.81 2876.27 1727.29 2899.17C1711.78 2921.34 1694.41 2940.18 1675.2 2955.69C1656.73 2970.47 1636.78 2977.86 1615.36 2977.86C1599.84 2977.86 1583.95 2972.69 1567.7 2962.34C1552.18 2952 1544.43 2932.79 1544.43 2904.71C1544.43 2889.2 1547.75 2870.36 1554.4 2848.19C1559.57 2833.41 1567.33 2816.42 1577.67 2797.21C1588.76 2778 1602.06 2755.83 1617.57 2730.71C1624.96 2718.15 1628.66 2708.18 1628.66 2700.79C1628.66 2691.92 1624.22 2687.49 1615.36 2687.49C1607.97 2687.49 1597.62 2691.18 1584.32 2698.57C1571.76 2705.96 1555.88 2718.89 1536.67 2737.36C1524.85 2748.45 1510.81 2763.96 1494.55 2783.91C1479.04 2803.12 1463.15 2824.18 1446.9 2847.08C1430.64 2869.99 1416.6 2892.52 1404.78 2914.69C1392.96 2936.85 1385.2 2956.43 1381.51 2973.43C1370.43 2973.43 1361.56 2968.99 1354.91 2960.13C1348.26 2950.52 1344.94 2939.44 1344.94 2926.88C1344.94 2924.66 1344.94 2922.44 1344.94 2920.23C1344.94 2918.01 1345.31 2915.43 1346.04 2912.47C1349.74 2889.57 1355.65 2868.14 1363.78 2848.19C1371.9 2828.24 1381.14 2807.55 1391.48 2786.13C1399.61 2770.61 1407.74 2753.99 1415.87 2736.25C1423.99 2717.78 1428.06 2703.74 1428.06 2694.14C1428.06 2688.23 1425.84 2685.27 1421.41 2685.27C1416.24 2685.27 1407.74 2689.34 1395.92 2697.46C1384.1 2704.85 1367.84 2718.15 1347.15 2737.36C1328.68 2755.09 1306.15 2780.59 1279.55 2813.83C1253.69 2847.08 1225.24 2894.37 1194.21 2955.69C1189.78 2963.82 1184.61 2968.99 1178.7 2971.21C1172.78 2972.69 1163.55 2973.43 1150.99 2973.43C1142.86 2973.43 1136.21 2973.43 1131.04 2973.43C1125.13 2974.16 1119.22 2976.01 1113.31 2978.97Z" fill="#52A02B"/>
<path d="M2020.75 2976.75C2012.62 2977.49 2003.39 2975.64 1993.04 2971.21C1982.7 2966.78 1973.46 2958.65 1965.34 2946.83C1957.95 2935 1954.25 2918.38 1954.25 2896.95C1954.25 2879.22 1957.58 2857.8 1964.23 2832.67C1955.36 2846.71 1943.91 2864.08 1929.87 2884.76C1915.83 2904.71 1900.69 2922.44 1884.43 2937.96C1870.39 2951.26 1857.1 2960.86 1844.54 2966.78C1831.97 2972.69 1820.52 2975.64 1810.18 2975.64C1790.97 2975.64 1775.45 2967.14 1763.63 2950.15C1751.81 2932.42 1745.9 2909.51 1745.9 2881.44C1745.9 2851.88 1753.29 2818.27 1768.06 2780.59C1782.84 2742.9 1806.85 2703.74 1840.1 2663.11C1861.53 2637.25 1887.39 2616.56 1917.68 2601.04C1948.71 2584.79 1979.01 2576.66 2008.56 2576.66C2025.55 2576.66 2041.81 2579.62 2057.32 2585.53C2072.84 2590.7 2086.51 2599.57 2098.33 2612.13C2103.5 2617.3 2106.09 2623.21 2106.09 2629.86C2106.09 2634.29 2104.24 2637.99 2100.55 2640.94C2096.85 2643.9 2092.05 2644.64 2086.14 2643.16C2078.01 2617.3 2060.65 2604.37 2034.05 2604.37C2021.49 2604.37 2007.08 2608.43 1990.83 2616.56C1965.71 2629.86 1939.48 2651.66 1912.14 2681.95C1885.54 2712.24 1862.27 2743.64 1842.32 2776.15C1839.36 2780.59 1834.56 2789.08 1827.91 2801.64C1822 2814.2 1816.09 2828.24 1810.18 2843.76C1804.27 2859.27 1800.2 2874.42 1797.99 2889.2C1797.25 2893.63 1796.88 2896.95 1796.88 2899.17C1796.88 2900.65 1796.88 2903.23 1796.88 2906.93C1796.88 2931.31 1806.12 2943.5 1824.59 2943.5C1846.75 2943.5 1871.87 2927.25 1899.95 2894.74C1919.16 2871.09 1936.52 2846.34 1952.04 2820.48C1967.55 2794.62 1983.44 2766.92 1999.69 2737.36C2010.78 2717.41 2021.12 2700.79 2030.73 2687.49C2040.33 2674.19 2054 2667.54 2071.73 2667.54C2079.86 2667.54 2087.99 2668.65 2096.11 2670.87C2104.24 2673.08 2112.74 2673.45 2121.6 2671.97C2115.69 2677.88 2107.57 2688.97 2097.22 2705.22C2087.62 2721.48 2077.27 2739.95 2066.19 2760.64C2055.11 2781.32 2045.13 2802.38 2036.27 2823.81C2027.4 2845.23 2021.12 2863.71 2017.43 2879.22C2016.69 2883.65 2015.58 2889.94 2014.1 2898.06C2013.36 2906.19 2012.99 2912.1 2012.99 2915.79C2012.99 2936.48 2018.9 2946.83 2030.73 2946.83C2042.55 2946.83 2055.11 2939.81 2068.41 2925.77C2082.45 2911.73 2096.11 2894.37 2109.41 2873.68C2122.71 2852.99 2134.9 2832.3 2145.99 2811.62C2157.07 2790.19 2165.94 2772.83 2172.58 2759.53C2175.54 2752.14 2179.97 2748.45 2185.88 2748.45C2189.58 2748.45 2191.43 2751.03 2191.43 2756.2C2191.43 2758.42 2190.32 2762.48 2188.1 2768.39C2179.23 2786.87 2168.52 2807.92 2155.96 2831.57C2143.4 2854.47 2129.73 2877.01 2114.95 2899.17C2100.18 2920.6 2084.66 2938.7 2068.41 2953.48C2052.89 2967.51 2037.01 2975.27 2020.75 2976.75Z" fill="#52A02B"/>
<path d="M2225.3 2973.43C2204.61 2973.43 2186.14 2966.41 2169.88 2952.37C2153.63 2937.59 2145.5 2914.69 2145.5 2883.65C2145.5 2859.27 2149.93 2829.35 2158.8 2793.88C2168.41 2757.68 2179.86 2720.37 2193.16 2681.95C2207.2 2642.79 2220.86 2607.32 2234.16 2575.55H2175.42C2170.25 2575.55 2167.67 2571.86 2167.67 2564.47C2167.67 2560.78 2168.41 2557.45 2169.88 2554.5C2172.1 2551.54 2175.06 2550.06 2178.75 2550.06H2245.25C2257.81 2521.99 2271.11 2494.65 2285.14 2468.05C2299.18 2441.45 2312.85 2416.33 2326.15 2392.69C2343.14 2363.13 2361.25 2340.97 2380.46 2326.19C2399.67 2311.41 2416.29 2304.03 2430.33 2304.03C2441.41 2304.03 2450.65 2308.46 2458.04 2317.33C2465.42 2325.45 2469.12 2338.01 2469.12 2355.01C2469.12 2365.35 2466.9 2379.76 2462.47 2398.23C2458.04 2415.96 2451.02 2434.8 2441.41 2454.75C2436.24 2465.1 2428.85 2479.87 2419.25 2499.08C2410.38 2518.29 2401.51 2535.29 2392.65 2550.06H2445.84C2451.02 2550.06 2453.6 2553.76 2453.6 2561.15C2453.6 2564.1 2452.86 2567.43 2451.39 2571.12C2449.91 2574.08 2447.69 2575.55 2444.74 2575.55H2379.35C2360.88 2607.32 2339.82 2638.36 2316.18 2668.65C2292.53 2698.94 2264.46 2729.24 2231.95 2759.53C2229.73 2766.18 2226.78 2775.78 2223.08 2788.34C2220.13 2800.9 2217.17 2813.83 2214.21 2827.13C2212 2839.69 2209.78 2850.41 2207.56 2859.27C2206.09 2868.14 2205.35 2872.57 2205.35 2872.57C2203.13 2882.18 2202.02 2891.04 2202.02 2899.17C2202.02 2914.69 2205.72 2926.14 2213.11 2933.53C2220.49 2940.18 2228.99 2943.5 2238.6 2943.5C2244.51 2943.5 2250.42 2942.76 2256.33 2941.29C2262.24 2939.07 2268.89 2935.37 2276.28 2930.2C2302.14 2911.73 2324.67 2886.61 2343.88 2854.84C2363.83 2823.07 2381.19 2792.41 2395.97 2762.85C2400.41 2753.99 2404.84 2749.55 2409.27 2749.55C2412.23 2749.55 2413.7 2751.77 2413.7 2756.2C2413.7 2758.42 2412.6 2762.48 2410.38 2768.39C2394.12 2802.38 2380.46 2829.72 2369.37 2850.41C2358.29 2871.09 2347.58 2888.46 2337.23 2902.5C2326.89 2915.79 2314.7 2929.09 2300.66 2942.39C2290.32 2952.74 2278.49 2960.5 2265.2 2965.67C2251.9 2970.84 2238.6 2973.43 2225.3 2973.43ZM2312.85 2550.06H2369.37C2379.72 2530.85 2389.32 2512.01 2398.19 2493.54C2407.79 2475.07 2416.29 2456.6 2423.68 2438.13C2428.85 2426.31 2433.28 2413.01 2436.98 2398.23C2440.67 2383.45 2442.52 2372 2442.52 2363.87C2442.52 2352.79 2439.93 2347.25 2434.76 2347.25C2431.07 2347.25 2425.53 2350.57 2418.14 2357.22C2411.49 2363.13 2402.99 2373.48 2392.65 2388.26C2379.35 2406.73 2366.05 2430.74 2352.75 2460.29C2340.19 2489.11 2326.89 2519.03 2312.85 2550.06ZM2240.81 2724.06C2262.24 2701.9 2282.19 2678.25 2300.66 2653.13C2319.87 2628.01 2337.6 2602.15 2353.86 2575.55H2301.77C2289.95 2602.89 2278.86 2629.49 2268.52 2655.35C2258.18 2681.21 2248.94 2704.11 2240.81 2724.06Z" fill="#52A02B"/>
<path d="M2472.63 2977.86C2445.3 2977.86 2420.54 2968.99 2398.38 2951.26C2376.95 2933.53 2366.24 2906.56 2366.24 2870.36C2366.24 2837.11 2374.37 2801.64 2390.62 2763.96C2406.88 2725.54 2427.56 2691.92 2452.68 2663.11C2474.11 2637.99 2498.12 2617.3 2524.72 2601.04C2551.32 2584.79 2576.44 2576.66 2600.09 2576.66C2616.34 2576.66 2630.38 2581.1 2642.2 2589.96C2654.76 2599.57 2661.04 2613.24 2661.04 2630.97C2661.04 2649.44 2654.02 2669.76 2639.98 2691.92C2625.95 2714.09 2606 2734.78 2580.14 2753.99C2569.05 2762.11 2555.02 2769.87 2538.02 2777.26C2521.03 2784.65 2504.03 2790.93 2487.04 2796.1C2470.05 2800.53 2456.01 2802.75 2444.93 2802.75C2441.23 2811.62 2437.54 2823.44 2433.84 2838.22C2430.89 2852.99 2429.41 2868.14 2429.41 2883.65C2429.41 2902.13 2433.11 2918.75 2440.49 2933.53C2447.88 2948.3 2461.55 2955.69 2481.5 2955.69C2505.88 2955.69 2528.05 2948.67 2548 2934.64C2567.95 2920.6 2585.68 2903.23 2601.19 2882.55C2616.71 2861.12 2629.64 2839.69 2639.98 2818.27C2651.07 2796.84 2659.93 2778.74 2666.58 2763.96C2671.02 2753.62 2676.93 2748.45 2684.31 2748.45C2688.01 2748.45 2689.86 2750.29 2689.86 2753.99C2689.86 2756.94 2688.75 2760.64 2686.53 2765.07C2676.19 2787.23 2665.1 2810.88 2653.28 2836C2641.46 2860.38 2627.42 2883.65 2611.17 2905.82C2594.91 2927.25 2575.33 2944.61 2552.43 2957.91C2530.26 2971.21 2503.67 2977.86 2472.63 2977.86ZM2452.68 2782.8C2463.03 2782.8 2480.39 2779.11 2504.77 2771.72C2529.16 2763.59 2551.32 2751.03 2571.27 2734.04C2590.48 2717.04 2605.26 2698.57 2615.6 2678.62C2625.95 2657.94 2631.12 2640.57 2631.12 2626.53C2631.12 2610.28 2625.21 2602.15 2613.38 2602.15C2604.52 2602.15 2592.33 2608.06 2576.81 2619.89C2561.3 2631.71 2542.09 2651.66 2519.18 2679.73C2505.14 2697.46 2491.84 2716.67 2479.28 2737.36C2466.72 2758.05 2457.86 2773.2 2452.68 2782.8Z" fill="#52A02B"/>
<path d="M1616.23 4688.48C1616.23 4692.17 1616.08 4695.35 1615.78 4698.01C1615.64 4700.52 1615.34 4702.73 1614.9 4704.65C1614.46 4706.42 1613.87 4707.97 1613.13 4709.3C1612.39 4710.63 1611.21 4712.18 1609.58 4713.96C1607.96 4715.58 1604.78 4717.72 1600.06 4720.38C1595.48 4723.04 1589.79 4725.62 1583 4728.13C1576.35 4730.5 1568.67 4732.49 1559.96 4734.11C1551.4 4735.74 1542.09 4736.55 1532.05 4736.55C1512.41 4736.55 1494.69 4733.52 1478.88 4727.47C1463.08 4721.41 1449.64 4712.41 1438.57 4700.44C1427.49 4688.33 1419 4673.27 1413.09 4655.25C1407.19 4637.24 1404.23 4616.26 1404.23 4592.34C1404.23 4567.97 1407.48 4546.34 1413.98 4527.43C1420.48 4508.53 1429.56 4492.66 1441.23 4479.81C1452.89 4466.96 1466.85 4457.21 1483.09 4450.57C1499.49 4443.92 1517.5 4440.6 1537.14 4440.6C1545.12 4440.6 1552.8 4441.26 1560.18 4442.59C1567.57 4443.92 1574.36 4445.69 1580.56 4447.91C1586.91 4449.98 1592.6 4452.41 1597.62 4455.22C1602.64 4458.02 1606.11 4460.46 1608.03 4462.53C1610.1 4464.45 1611.5 4466.07 1612.24 4467.4C1612.98 4468.73 1613.57 4470.43 1614.01 4472.5C1614.46 4474.57 1614.75 4477 1614.9 4479.81C1615.19 4482.61 1615.34 4486.08 1615.34 4490.22C1615.34 4494.65 1615.19 4498.42 1614.9 4501.52C1614.6 4504.62 1614.09 4507.13 1613.35 4509.05C1612.61 4510.97 1611.72 4512.37 1610.69 4513.26C1609.66 4514.14 1608.47 4514.59 1607.15 4514.59C1604.93 4514.59 1602.12 4513.33 1598.73 4510.82C1595.33 4508.16 1590.9 4505.28 1585.44 4502.18C1580.12 4498.93 1573.7 4496.05 1566.16 4493.54C1558.78 4490.88 1549.92 4489.55 1539.58 4489.55C1528.21 4489.55 1518.02 4491.92 1509.01 4496.64C1500.15 4501.22 1492.55 4507.87 1486.19 4516.58C1479.99 4525.15 1475.27 4535.56 1472.02 4547.81C1468.77 4560.07 1467.14 4573.88 1467.14 4589.24C1467.14 4606.07 1468.84 4620.7 1472.24 4633.1C1475.78 4645.36 1480.73 4655.47 1487.08 4663.45C1493.58 4671.42 1501.33 4677.4 1510.34 4681.39C1519.5 4685.23 1529.76 4687.15 1541.13 4687.15C1551.47 4687.15 1560.4 4685.97 1567.94 4683.61C1575.47 4681.1 1581.89 4678.36 1587.21 4675.41C1592.67 4672.46 1597.1 4669.8 1600.5 4667.44C1604.04 4665.07 1606.78 4663.89 1608.7 4663.89C1610.17 4663.89 1611.35 4664.19 1612.24 4664.78C1613.13 4665.37 1613.87 4666.55 1614.46 4668.32C1615.05 4670.09 1615.49 4672.61 1615.78 4675.85C1616.08 4678.96 1616.23 4683.16 1616.23 4688.48Z" fill="#1B1B1B"/>
<path d="M1815.6 4707.53C1815.6 4711.96 1815.38 4715.73 1814.93 4718.83C1814.64 4721.78 1814.12 4724.29 1813.38 4726.36C1812.64 4728.28 1811.68 4729.68 1810.5 4730.57C1809.47 4731.46 1808.21 4731.9 1806.74 4731.9H1675.37C1670.5 4731.9 1666.37 4730.5 1662.97 4727.69C1659.72 4724.74 1658.1 4720.01 1658.1 4713.51V4453.23C1658.1 4451.75 1658.54 4450.42 1659.42 4449.24C1660.46 4448.06 1662.08 4447.1 1664.3 4446.36C1666.51 4445.62 1669.47 4445.03 1673.16 4444.59C1677 4444.14 1681.72 4443.92 1687.34 4443.92C1693.1 4443.92 1697.82 4444.14 1701.51 4444.59C1705.21 4445.03 1708.16 4445.62 1710.37 4446.36C1712.59 4447.1 1714.14 4448.06 1715.03 4449.24C1716.06 4450.42 1716.58 4451.75 1716.58 4453.23V4683.83H1806.74C1808.21 4683.83 1809.47 4684.27 1810.5 4685.16C1811.68 4685.9 1812.64 4687.23 1813.38 4689.15C1814.12 4690.92 1814.64 4693.35 1814.93 4696.46C1815.38 4699.41 1815.6 4703.1 1815.6 4707.53Z" fill="#1B1B1B"/>
<path d="M2019.84 4709.08C2019.84 4713.37 2019.62 4716.98 2019.18 4719.94C2018.88 4722.74 2018.36 4725.03 2017.62 4726.8C2016.89 4728.58 2015.93 4729.91 2014.74 4730.79C2013.71 4731.53 2012.53 4731.9 2011.2 4731.9H1867.21C1862.34 4731.9 1858.2 4730.5 1854.81 4727.69C1851.56 4724.74 1849.93 4720.01 1849.93 4713.51V4463.64C1849.93 4457.14 1851.56 4452.49 1854.81 4449.68C1858.2 4446.73 1862.34 4445.25 1867.21 4445.25H2010.31C2011.64 4445.25 2012.83 4445.62 2013.86 4446.36C2014.89 4447.1 2015.78 4448.43 2016.52 4450.35C2017.26 4452.12 2017.77 4454.48 2018.07 4457.43C2018.51 4460.24 2018.73 4463.86 2018.73 4468.29C2018.73 4472.42 2018.51 4475.97 2018.07 4478.92C2017.77 4481.73 2017.26 4484.02 2016.52 4485.79C2015.78 4487.56 2014.89 4488.89 2013.86 4489.78C2012.83 4490.51 2011.64 4490.88 2010.31 4490.88H1907.97V4560.88H1994.59C1995.92 4560.88 1997.1 4561.33 1998.13 4562.21C1999.31 4562.95 2000.27 4564.21 2001.01 4565.98C2001.75 4567.6 2002.27 4569.89 2002.56 4572.85C2003 4575.65 2003.23 4579.12 2003.23 4583.26C2003.23 4587.54 2003 4591.09 2002.56 4593.89C2002.27 4596.7 2001.75 4598.99 2001.01 4600.76C2000.27 4602.38 1999.31 4603.56 1998.13 4604.3C1997.1 4605.04 1995.92 4605.41 1994.59 4605.41H1907.97V4686.27H2011.2C2012.53 4686.27 2013.71 4686.71 2014.74 4687.59C2015.93 4688.33 2016.89 4689.59 2017.62 4691.36C2018.36 4693.13 2018.88 4695.5 2019.18 4698.45C2019.62 4701.26 2019.84 4704.8 2019.84 4709.08Z" fill="#1B1B1B"/>
<path d="M2300.51 4710.19C2302.28 4715.51 2303.39 4719.72 2303.83 4722.82C2304.27 4725.92 2303.68 4728.28 2302.06 4729.91C2300.43 4731.38 2297.55 4732.27 2293.42 4732.56C2289.28 4733.01 2283.6 4733.23 2276.36 4733.23C2268.83 4733.23 2262.92 4733.08 2258.64 4732.79C2254.5 4732.64 2251.33 4732.27 2249.11 4731.68C2246.9 4730.94 2245.35 4729.98 2244.46 4728.8C2243.58 4727.62 2242.84 4726.07 2242.25 4724.15L2222.98 4666.55H2115.32L2097.15 4722.6C2096.56 4724.66 2095.75 4726.43 2094.71 4727.91C2093.83 4729.24 2092.28 4730.35 2090.06 4731.23C2087.99 4731.97 2084.97 4732.49 2080.98 4732.79C2077.14 4733.08 2072.05 4733.23 2065.69 4733.23C2058.9 4733.23 2053.59 4733.01 2049.75 4732.56C2045.91 4732.12 2043.25 4731.09 2041.77 4729.46C2040.29 4727.69 2039.78 4725.25 2040.22 4722.15C2040.66 4719.05 2041.77 4714.92 2043.54 4709.75L2131.93 4455.44C2132.82 4452.93 2133.85 4450.94 2135.03 4449.46C2136.21 4447.83 2138.06 4446.65 2140.57 4445.91C2143.23 4445.03 2146.85 4444.51 2151.42 4444.36C2156 4444.07 2162.06 4443.92 2169.59 4443.92C2178.3 4443.92 2185.24 4444.07 2190.41 4444.36C2195.58 4444.51 2199.57 4445.03 2202.37 4445.91C2205.33 4446.65 2207.39 4447.83 2208.58 4449.46C2209.91 4451.08 2211.01 4453.3 2211.9 4456.1L2300.51 4710.19ZM2168.92 4499.97H2168.7L2128.16 4621.8H2209.46L2168.92 4499.97Z" fill="#1B1B1B"/>
<path d="M2577.19 4711.52C2577.19 4714.92 2576.6 4717.94 2575.42 4720.6C2574.23 4723.26 2572.61 4725.47 2570.54 4727.25C2568.62 4729.02 2566.26 4730.35 2563.45 4731.23C2560.8 4731.97 2558.06 4732.34 2555.26 4732.34H2530.45C2525.28 4732.34 2520.77 4731.83 2516.93 4730.79C2513.24 4729.76 2509.77 4727.91 2506.52 4725.25C2503.42 4722.45 2500.39 4718.76 2497.44 4714.18C2494.49 4709.45 2491.16 4703.4 2487.47 4696.01L2416.14 4561.99C2412.01 4554.02 2407.8 4545.45 2403.52 4536.3C2399.23 4526.99 2395.39 4517.98 2392 4509.27H2391.55C2392.14 4519.9 2392.59 4530.54 2392.88 4541.17C2393.18 4551.65 2393.33 4562.51 2393.33 4573.73V4723.7C2393.33 4725.18 2392.88 4726.51 2392 4727.69C2391.26 4728.87 2389.85 4729.91 2387.79 4730.79C2385.87 4731.53 2383.21 4732.12 2379.81 4732.56C2376.42 4733.01 2372.06 4733.23 2366.74 4733.23C2361.57 4733.23 2357.29 4733.01 2353.89 4732.56C2350.5 4732.12 2347.84 4731.53 2345.92 4730.79C2344 4729.91 2342.67 4728.87 2341.93 4727.69C2341.19 4726.51 2340.82 4725.18 2340.82 4723.7V4466.07C2340.82 4459.13 2342.82 4453.96 2346.81 4450.57C2350.94 4447.02 2355.96 4445.25 2361.87 4445.25H2393.1C2398.72 4445.25 2403.44 4445.77 2407.28 4446.8C2411.12 4447.69 2414.52 4449.24 2417.47 4451.45C2420.57 4453.67 2423.45 4456.77 2426.11 4460.76C2428.77 4464.6 2431.5 4469.4 2434.31 4475.16L2490.13 4579.94C2493.38 4586.29 2496.55 4592.56 2499.66 4598.76C2502.9 4604.82 2506.01 4610.95 2508.96 4617.15C2511.91 4623.21 2514.79 4629.19 2517.6 4635.09C2520.4 4641 2523.14 4646.91 2525.79 4652.82H2526.02C2525.57 4642.48 2525.2 4631.7 2524.91 4620.47C2524.76 4609.25 2524.69 4598.54 2524.69 4588.35V4453.89C2524.69 4452.41 2525.13 4451.08 2526.02 4449.9C2526.9 4448.72 2528.38 4447.69 2530.45 4446.8C2532.51 4445.91 2535.25 4445.32 2538.64 4445.03C2542.04 4444.59 2546.4 4444.36 2551.71 4444.36C2556.73 4444.36 2560.94 4444.59 2564.34 4445.03C2567.74 4445.32 2570.32 4445.91 2572.09 4446.8C2574.01 4447.69 2575.34 4448.72 2576.08 4449.9C2576.82 4451.08 2577.19 4452.41 2577.19 4453.89V4711.52Z" fill="#1B1B1B"/>
<path d="M3160.97 4723.93C3160.97 4725.41 3160.53 4726.74 3159.64 4727.92C3158.9 4729.1 3157.42 4730.06 3155.21 4730.8C3153.14 4731.54 3150.34 4732.13 3146.79 4732.57C3143.25 4733.01 3138.74 4733.23 3133.28 4733.23C3127.96 4733.23 3123.53 4733.01 3119.99 4732.57C3116.44 4732.13 3113.64 4731.54 3111.57 4730.8C3109.5 4730.06 3108.03 4729.1 3107.14 4727.92C3106.25 4726.74 3105.81 4725.41 3105.81 4723.93V4490.67H3105.37L3022.3 4723.71C3021.71 4725.63 3020.75 4727.25 3019.42 4728.58C3018.09 4729.76 3016.24 4730.72 3013.88 4731.46C3011.66 4732.2 3008.78 4732.64 3005.24 4732.79C3001.69 4733.09 2997.41 4733.23 2992.39 4733.23C2987.37 4733.23 2983.09 4733.01 2979.54 4732.57C2976 4732.27 2973.04 4731.76 2970.68 4731.02C2968.47 4730.13 2966.69 4729.1 2965.37 4727.92C2964.04 4726.74 2963.15 4725.33 2962.71 4723.71L2882.52 4490.67H2882.07V4723.93C2882.07 4725.41 2881.63 4726.74 2880.74 4727.92C2880.01 4729.1 2878.53 4730.06 2876.31 4730.8C2874.1 4731.54 2871.22 4732.13 2867.67 4732.57C2864.28 4733.01 2859.85 4733.23 2854.38 4733.23C2849.07 4733.23 2844.64 4733.01 2841.09 4732.57C2837.55 4732.13 2834.67 4731.54 2832.45 4730.8C2830.39 4730.06 2828.91 4729.1 2828.02 4727.92C2827.28 4726.74 2826.91 4725.41 2826.91 4723.93V4468.52C2826.91 4460.98 2828.91 4455.22 2832.9 4451.24C2836.88 4447.25 2842.2 4445.26 2848.85 4445.26H2886.95C2893.74 4445.26 2899.57 4445.85 2904.45 4447.03C2909.32 4448.06 2913.53 4449.91 2917.07 4452.57C2920.62 4455.08 2923.57 4458.47 2925.93 4462.76C2928.3 4466.89 2930.37 4472.06 2932.14 4478.26L2994.16 4649.06H2995.05L3059.29 4478.71C3061.21 4472.5 3063.28 4467.26 3065.49 4462.98C3067.86 4458.7 3070.51 4455.22 3073.47 4452.57C3076.57 4449.91 3080.19 4448.06 3084.32 4447.03C3088.46 4445.85 3093.26 4445.26 3098.72 4445.26H3137.93C3141.92 4445.26 3145.31 4445.77 3148.12 4446.81C3151.07 4447.84 3153.44 4449.39 3155.21 4451.46C3157.13 4453.38 3158.53 4455.82 3159.42 4458.77C3160.45 4461.57 3160.97 4464.82 3160.97 4468.52V4723.93Z" fill="#1B1B1B"/>
<path d="M3393.34 4709.09C3393.34 4713.37 3393.12 4716.99 3392.68 4719.94C3392.38 4722.75 3391.87 4725.04 3391.13 4726.81C3390.39 4728.58 3389.43 4729.91 3388.25 4730.8C3387.22 4731.54 3386.03 4731.9 3384.71 4731.9H3240.72C3235.84 4731.9 3231.71 4730.5 3228.31 4727.7C3225.06 4724.74 3223.44 4720.02 3223.44 4713.52V4463.64C3223.44 4457.14 3225.06 4452.49 3228.31 4449.69C3231.71 4446.73 3235.84 4445.26 3240.72 4445.26H3383.82C3385.15 4445.26 3386.33 4445.63 3387.36 4446.36C3388.4 4447.1 3389.28 4448.43 3390.02 4450.35C3390.76 4452.12 3391.28 4454.49 3391.57 4457.44C3392.02 4460.25 3392.24 4463.86 3392.24 4468.29C3392.24 4472.43 3392.02 4475.97 3391.57 4478.93C3391.28 4481.73 3390.76 4484.02 3390.02 4485.79C3389.28 4487.57 3388.4 4488.9 3387.36 4489.78C3386.33 4490.52 3385.15 4490.89 3383.82 4490.89H3281.48V4560.89H3368.09C3369.42 4560.89 3370.6 4561.33 3371.64 4562.22C3372.82 4562.96 3373.78 4564.21 3374.52 4565.99C3375.25 4567.61 3375.77 4569.9 3376.07 4572.85C3376.51 4575.66 3376.73 4579.13 3376.73 4583.26C3376.73 4587.55 3376.51 4591.09 3376.07 4593.9C3375.77 4596.7 3375.25 4598.99 3374.52 4600.76C3373.78 4602.39 3372.82 4603.57 3371.64 4604.31C3370.6 4605.05 3369.42 4605.42 3368.09 4605.42H3281.48V4686.27H3384.71C3386.03 4686.27 3387.22 4686.71 3388.25 4687.6C3389.43 4688.34 3390.39 4689.59 3391.13 4691.37C3391.87 4693.14 3392.38 4695.5 3392.68 4698.46C3393.12 4701.26 3393.34 4704.81 3393.34 4709.09Z" fill="#1B1B1B"/>
<path d="M3614.87 4709.09C3614.87 4713.37 3614.64 4716.99 3614.2 4719.94C3613.91 4722.75 3613.39 4725.04 3612.65 4726.81C3611.91 4728.58 3610.95 4729.91 3609.77 4730.8C3608.74 4731.54 3607.56 4731.9 3606.23 4731.9H3462.24C3457.36 4731.9 3453.23 4730.5 3449.83 4727.7C3446.58 4724.74 3444.96 4720.02 3444.96 4713.52V4463.64C3444.96 4457.14 3446.58 4452.49 3449.83 4449.69C3453.23 4446.73 3457.36 4445.26 3462.24 4445.26H3605.34C3606.67 4445.26 3607.85 4445.63 3608.89 4446.36C3609.92 4447.1 3610.81 4448.43 3611.54 4450.35C3612.28 4452.12 3612.8 4454.49 3613.09 4457.44C3613.54 4460.25 3613.76 4463.86 3613.76 4468.29C3613.76 4472.43 3613.54 4475.97 3613.09 4478.93C3612.8 4481.73 3612.28 4484.02 3611.54 4485.79C3610.81 4487.57 3609.92 4488.9 3608.89 4489.78C3607.85 4490.52 3606.67 4490.89 3605.34 4490.89H3503V4560.89H3589.61C3590.94 4560.89 3592.12 4561.33 3593.16 4562.22C3594.34 4562.96 3595.3 4564.21 3596.04 4565.99C3596.78 4567.61 3597.29 4569.9 3597.59 4572.85C3598.03 4575.66 3598.25 4579.13 3598.25 4583.26C3598.25 4587.55 3598.03 4591.09 3597.59 4593.9C3597.29 4596.7 3596.78 4598.99 3596.04 4600.76C3595.3 4602.39 3594.34 4603.57 3593.16 4604.31C3592.12 4605.05 3590.94 4605.42 3589.61 4605.42H3503V4686.27H3606.23C3607.56 4686.27 3608.74 4686.71 3609.77 4687.6C3610.95 4688.34 3611.91 4689.59 3612.65 4691.37C3613.39 4693.14 3613.91 4695.5 3614.2 4698.46C3614.64 4701.26 3614.87 4704.81 3614.87 4709.09Z" fill="#1B1B1B"/>
<path d="M3857.21 4469.18C3857.21 4473.46 3856.99 4477.16 3856.55 4480.26C3856.25 4483.21 3855.73 4485.65 3855 4487.57C3854.26 4489.34 3853.3 4490.67 3852.12 4491.55C3851.08 4492.44 3849.9 4492.88 3848.57 4492.88H3776.8V4723.93C3776.8 4725.41 3776.28 4726.74 3775.25 4727.92C3774.36 4729.1 3772.81 4730.06 3770.6 4730.8C3768.38 4731.54 3765.35 4732.13 3761.51 4732.57C3757.82 4733.01 3753.17 4733.23 3747.56 4733.23C3741.95 4733.23 3737.22 4733.01 3733.38 4732.57C3729.69 4732.13 3726.73 4731.54 3724.52 4730.8C3722.3 4730.06 3720.68 4729.1 3719.65 4727.92C3718.76 4726.74 3718.32 4725.41 3718.32 4723.93V4492.88H3646.54C3645.07 4492.88 3643.81 4492.44 3642.78 4491.55C3641.74 4490.67 3640.86 4489.34 3640.12 4487.57C3639.38 4485.65 3638.79 4483.21 3638.35 4480.26C3638.05 4477.16 3637.9 4473.46 3637.9 4469.18C3637.9 4464.75 3638.05 4460.98 3638.35 4457.88C3638.79 4454.78 3639.38 4452.34 3640.12 4450.57C3640.86 4448.65 3641.74 4447.32 3642.78 4446.59C3643.81 4445.7 3645.07 4445.26 3646.54 4445.26H3848.57C3849.9 4445.26 3851.08 4445.7 3852.12 4446.59C3853.3 4447.32 3854.26 4448.65 3855 4450.57C3855.73 4452.34 3856.25 4454.78 3856.55 4457.88C3856.99 4460.98 3857.21 4464.75 3857.21 4469.18Z" fill="#1B1B1B"/>
<path d="M4058.8 4645.95C4058.8 4661.02 4055.99 4674.24 4050.38 4685.61C4044.77 4696.98 4037.16 4706.5 4027.56 4714.18C4017.96 4721.71 4006.74 4727.4 3993.89 4731.24C3981.04 4735.08 3967.31 4737 3952.69 4737C3942.79 4737 3933.56 4736.19 3925 4734.56C3916.58 4732.94 3909.12 4731.02 3902.62 4728.8C3896.12 4726.44 3890.66 4724 3886.23 4721.49C3881.95 4718.98 3878.85 4716.77 3876.93 4714.85C3875.01 4712.93 3873.6 4710.2 3872.72 4706.65C3871.98 4702.96 3871.61 4697.72 3871.61 4690.92C3871.61 4686.35 3871.76 4682.51 3872.05 4679.4C3872.35 4676.3 3872.79 4673.79 3873.38 4671.87C3874.12 4669.95 3875.01 4668.62 3876.04 4667.89C3877.22 4667 3878.55 4666.56 3880.03 4666.56C3882.1 4666.56 3884.97 4667.81 3888.67 4670.32C3892.51 4672.68 3897.38 4675.34 3903.29 4678.3C3909.19 4681.25 3916.21 4683.98 3924.33 4686.49C3932.6 4688.86 3942.13 4690.04 3952.91 4690.04C3960 4690.04 3966.35 4689.23 3971.96 4687.6C3977.57 4685.83 3982.3 4683.39 3986.14 4680.29C3990.12 4677.19 3993.15 4673.35 3995.22 4668.77C3997.29 4664.19 3998.32 4659.1 3998.32 4653.49C3998.32 4646.99 3996.55 4641.45 3993 4636.87C3989.46 4632.15 3984.81 4628.01 3979.05 4624.47C3973.44 4620.77 3967.01 4617.38 3959.78 4614.28C3952.54 4611.03 3945.08 4607.63 3937.4 4604.09C3929.72 4600.54 3922.26 4596.56 3915.03 4592.12C3907.79 4587.55 3901.29 4582.16 3895.53 4575.95C3889.92 4569.6 3885.34 4562.15 3881.8 4553.58C3878.26 4545.01 3876.48 4534.75 3876.48 4522.79C3876.48 4509.05 3878.99 4497.02 3884.01 4486.68C3889.18 4476.2 3896.05 4467.56 3904.62 4460.76C3913.33 4453.82 3923.52 4448.65 3935.19 4445.26C3947 4441.86 3959.48 4440.16 3972.62 4440.16C3979.42 4440.16 3986.21 4440.68 3993 4441.71C3999.8 4442.75 4006.15 4444.15 4012.05 4445.92C4017.96 4447.69 4023.2 4449.69 4027.78 4451.9C4032.36 4454.12 4035.39 4455.96 4036.86 4457.44C4038.34 4458.92 4039.3 4460.17 4039.74 4461.21C4040.34 4462.24 4040.78 4463.64 4041.07 4465.41C4041.52 4467.04 4041.81 4469.18 4041.96 4471.84C4042.11 4474.35 4042.18 4477.52 4042.18 4481.36C4042.18 4485.65 4042.03 4489.27 4041.74 4492.22C4041.59 4495.17 4041.22 4497.61 4040.63 4499.53C4040.19 4501.45 4039.45 4502.85 4038.42 4503.74C4037.53 4504.62 4036.27 4505.07 4034.65 4505.07C4033.02 4505.07 4030.44 4504.03 4026.9 4501.97C4023.35 4499.9 4019 4497.68 4013.83 4495.32C4008.66 4492.81 4002.68 4490.59 3995.88 4488.67C3989.09 4486.61 3981.63 4485.57 3973.51 4485.57C3967.16 4485.57 3961.62 4486.39 3956.9 4488.01C3952.17 4489.49 3948.18 4491.63 3944.93 4494.43C3941.83 4497.09 3939.47 4500.34 3937.84 4504.18C3936.37 4508.02 3935.63 4512.08 3935.63 4516.36C3935.63 4522.71 3937.33 4528.25 3940.72 4532.98C3944.27 4537.56 3948.92 4541.69 3954.68 4545.38C3960.59 4548.93 3967.23 4552.32 3974.62 4555.57C3982 4558.68 3989.53 4562 3997.21 4565.54C4004.89 4569.09 4012.42 4573.15 4019.81 4577.73C4027.19 4582.16 4033.76 4587.55 4039.52 4593.9C4045.28 4600.1 4049.93 4607.48 4053.48 4616.05C4057.02 4624.47 4058.8 4634.44 4058.8 4645.95Z" fill="#1B1B1B"/>
<path d="M4497.78 4489.78C4497.78 4494.06 4497.56 4497.75 4497.11 4500.85C4496.82 4503.96 4496.3 4506.47 4495.56 4508.39C4494.97 4510.16 4494.16 4511.41 4493.13 4512.15C4492.24 4512.89 4491.13 4513.26 4489.8 4513.26C4487.88 4513.26 4484.78 4511.93 4480.5 4509.27C4476.22 4506.61 4470.53 4503.73 4463.44 4500.63C4456.35 4497.53 4447.86 4494.65 4437.97 4491.99C4428.22 4489.34 4416.85 4488.01 4403.85 4488.01C4389.97 4488.01 4377.42 4490.44 4366.19 4495.32C4354.97 4500.04 4345.37 4506.84 4337.4 4515.7C4329.42 4524.41 4323.29 4534.97 4319.01 4547.37C4314.73 4559.63 4312.59 4573.22 4312.59 4588.13C4312.59 4604.53 4314.73 4619 4319.01 4631.55C4323.44 4643.96 4329.57 4654.37 4337.4 4662.79C4345.22 4671.2 4354.6 4677.56 4365.53 4681.84C4376.61 4686.12 4388.79 4688.26 4402.08 4688.26C4408.58 4688.26 4415 4687.52 4421.35 4686.05C4427.7 4684.57 4433.61 4682.35 4439.07 4679.4V4612.94H4384.8C4382.14 4612.94 4380.08 4611.32 4378.6 4608.07C4377.12 4604.67 4376.38 4598.99 4376.38 4591.01C4376.38 4586.88 4376.53 4583.41 4376.83 4580.6C4377.27 4577.8 4377.86 4575.58 4378.6 4573.96C4379.34 4572.18 4380.22 4570.93 4381.26 4570.19C4382.29 4569.31 4383.47 4568.86 4384.8 4568.86H4481.61C4483.97 4568.86 4486.04 4569.31 4487.81 4570.19C4489.73 4570.93 4491.35 4572.11 4492.68 4573.74C4494.16 4575.36 4495.27 4577.35 4496.01 4579.72C4496.74 4581.93 4497.11 4584.52 4497.11 4587.47V4701.55C4497.11 4705.98 4496.3 4709.9 4494.68 4713.29C4493.2 4716.54 4490.02 4719.13 4485.15 4721.05C4480.43 4722.97 4474.52 4724.96 4467.43 4727.03C4460.34 4729.1 4452.96 4730.87 4445.28 4732.34C4437.75 4733.82 4430.07 4734.93 4422.24 4735.67C4414.56 4736.41 4406.81 4736.78 4398.98 4736.78C4376.09 4736.78 4355.56 4733.53 4337.4 4727.03C4319.38 4720.38 4304.09 4710.86 4291.54 4698.45C4278.99 4685.9 4269.39 4670.69 4262.74 4652.82C4256.1 4634.8 4252.78 4614.42 4252.78 4591.68C4252.78 4568.2 4256.32 4547.15 4263.41 4528.55C4270.5 4509.79 4280.54 4493.91 4293.54 4480.92C4306.53 4467.77 4322.19 4457.73 4340.5 4450.79C4358.96 4443.85 4379.49 4440.38 4402.08 4440.38C4414.49 4440.38 4425.78 4441.27 4435.97 4443.04C4446.16 4444.66 4455.02 4446.73 4462.56 4449.24C4470.24 4451.6 4476.59 4454.19 4481.61 4456.99C4486.63 4459.8 4490.1 4462.24 4492.02 4464.3C4494.09 4466.37 4495.56 4469.33 4496.45 4473.16C4497.34 4476.86 4497.78 4482.39 4497.78 4489.78Z" fill="#1B1B1B"/>
<path d="M4769.81 4724.37C4769.81 4725.99 4769.51 4727.4 4768.92 4728.58C4768.33 4729.61 4766.93 4730.5 4764.71 4731.24C4762.5 4731.98 4759.25 4732.49 4754.96 4732.79C4750.68 4733.08 4744.85 4733.23 4737.46 4733.23C4731.26 4733.23 4726.31 4733.08 4722.62 4732.79C4718.93 4732.49 4715.98 4731.98 4713.76 4731.24C4711.69 4730.35 4710.22 4729.32 4709.33 4728.14C4708.44 4726.81 4707.71 4725.26 4707.12 4723.48L4681.42 4659.46C4678.32 4652.23 4675.29 4645.8 4672.34 4640.19C4669.38 4634.58 4666.06 4629.93 4662.37 4626.24C4658.82 4622.4 4654.69 4619.52 4649.96 4617.6C4645.24 4615.68 4639.77 4614.72 4633.57 4614.72H4615.41V4723.93C4615.41 4725.4 4614.89 4726.73 4613.86 4727.91C4612.97 4729.1 4611.42 4730.06 4609.2 4730.79C4606.99 4731.53 4604.03 4732.12 4600.34 4732.57C4596.65 4733.01 4591.92 4733.23 4586.17 4733.23C4580.55 4733.23 4575.83 4733.01 4571.99 4732.57C4568.3 4732.12 4565.34 4731.53 4563.13 4730.79C4560.91 4730.06 4559.36 4729.1 4558.47 4727.91C4557.59 4726.73 4557.15 4725.4 4557.15 4723.93V4463.64C4557.15 4457.14 4558.77 4452.49 4562.02 4449.68C4565.42 4446.73 4569.55 4445.25 4574.42 4445.25H4648.63C4656.17 4445.25 4662.37 4445.4 4667.24 4445.7C4672.12 4445.99 4676.55 4446.36 4680.53 4446.8C4692.05 4448.43 4702.39 4451.23 4711.55 4455.22C4720.85 4459.21 4728.68 4464.45 4735.03 4470.95C4741.53 4477.3 4746.47 4484.91 4749.87 4493.77C4753.27 4502.48 4754.96 4512.52 4754.96 4523.89C4754.96 4533.49 4753.71 4542.28 4751.2 4550.25C4748.84 4558.08 4745.29 4565.1 4740.57 4571.3C4735.84 4577.5 4730.01 4582.89 4723.07 4587.47C4716.12 4592.05 4708.22 4595.74 4699.36 4598.55C4703.65 4600.61 4707.63 4603.12 4711.32 4606.08C4715.16 4609.03 4718.71 4612.65 4721.96 4616.93C4725.35 4621.07 4728.53 4625.87 4731.48 4631.33C4734.44 4636.65 4737.32 4642.7 4740.12 4649.5L4764.27 4705.98C4766.48 4711.6 4767.96 4715.73 4768.7 4718.39C4769.44 4720.9 4769.81 4722.89 4769.81 4724.37ZM4694.71 4529.87C4694.71 4520.42 4692.57 4512.45 4688.29 4505.95C4684 4499.45 4676.99 4494.87 4667.24 4492.22C4664.29 4491.48 4660.89 4490.89 4657.05 4490.44C4653.36 4490 4648.19 4489.78 4641.55 4489.78H4615.41V4571.08H4645.09C4653.36 4571.08 4660.6 4570.12 4666.8 4568.2C4673 4566.13 4678.17 4563.32 4682.31 4559.78C4686.44 4556.09 4689.54 4551.73 4691.61 4546.71C4693.68 4541.69 4694.71 4536.08 4694.71 4529.87Z" fill="#1B1B1B"/>
<path d="M4982.69 4709.09C4982.69 4713.37 4982.47 4716.99 4982.02 4719.94C4981.73 4722.75 4981.21 4725.03 4980.47 4726.81C4979.73 4728.58 4978.77 4729.91 4977.59 4730.79C4976.56 4731.53 4975.38 4731.9 4974.05 4731.9H4830.06C4825.19 4731.9 4821.05 4730.5 4817.65 4727.69C4814.41 4724.74 4812.78 4720.01 4812.78 4713.52V4463.64C4812.78 4457.14 4814.41 4452.49 4817.65 4449.68C4821.05 4446.73 4825.19 4445.25 4830.06 4445.25H4973.16C4974.49 4445.25 4975.67 4445.62 4976.71 4446.36C4977.74 4447.1 4978.63 4448.43 4979.37 4450.35C4980.1 4452.12 4980.62 4454.48 4980.92 4457.44C4981.36 4460.24 4981.58 4463.86 4981.58 4468.29C4981.58 4472.43 4981.36 4475.97 4980.92 4478.92C4980.62 4481.73 4980.1 4484.02 4979.37 4485.79C4978.63 4487.56 4977.74 4488.89 4976.71 4489.78C4975.67 4490.52 4974.49 4490.89 4973.16 4490.89H4870.82V4560.89H4957.43C4958.76 4560.89 4959.95 4561.33 4960.98 4562.22C4962.16 4562.95 4963.12 4564.21 4963.86 4565.98C4964.6 4567.61 4965.11 4569.9 4965.41 4572.85C4965.85 4575.66 4966.07 4579.13 4966.07 4583.26C4966.07 4587.54 4965.85 4591.09 4965.41 4593.89C4965.11 4596.7 4964.6 4598.99 4963.86 4600.76C4963.12 4602.39 4962.16 4603.57 4960.98 4604.31C4959.95 4605.04 4958.76 4605.41 4957.43 4605.41H4870.82V4686.27H4974.05C4975.38 4686.27 4976.56 4686.71 4977.59 4687.6C4978.77 4688.34 4979.73 4689.59 4980.47 4691.36C4981.21 4693.14 4981.73 4695.5 4982.02 4698.45C4982.47 4701.26 4982.69 4704.8 4982.69 4709.09Z" fill="#1B1B1B"/>
<path d="M5204.21 4709.09C5204.21 4713.37 5203.99 4716.99 5203.55 4719.94C5203.25 4722.75 5202.73 4725.03 5201.99 4726.81C5201.26 4728.58 5200.3 4729.91 5199.11 4730.79C5198.08 4731.53 5196.9 4731.9 5195.57 4731.9H5051.58C5046.71 4731.9 5042.57 4730.5 5039.18 4727.69C5035.93 4724.74 5034.3 4720.01 5034.3 4713.52V4463.64C5034.3 4457.14 5035.93 4452.49 5039.18 4449.68C5042.57 4446.73 5046.71 4445.25 5051.58 4445.25H5194.68C5196.01 4445.25 5197.19 4445.62 5198.23 4446.36C5199.26 4447.1 5200.15 4448.43 5200.89 4450.35C5201.63 4452.12 5202.14 4454.48 5202.44 4457.44C5202.88 4460.24 5203.1 4463.86 5203.1 4468.29C5203.1 4472.43 5202.88 4475.97 5202.44 4478.92C5202.14 4481.73 5201.63 4484.02 5200.89 4485.79C5200.15 4487.56 5199.26 4488.89 5198.23 4489.78C5197.19 4490.52 5196.01 4490.89 5194.68 4490.89H5092.34V4560.89H5178.96C5180.29 4560.89 5181.47 4561.33 5182.5 4562.22C5183.68 4562.95 5184.64 4564.21 5185.38 4565.98C5186.12 4567.61 5186.64 4569.9 5186.93 4572.85C5187.37 4575.66 5187.6 4579.13 5187.6 4583.26C5187.6 4587.54 5187.37 4591.09 5186.93 4593.89C5186.64 4596.7 5186.12 4598.99 5185.38 4600.76C5184.64 4602.39 5183.68 4603.57 5182.5 4604.31C5181.47 4605.04 5180.29 4605.41 5178.96 4605.41H5092.34V4686.27H5195.57C5196.9 4686.27 5198.08 4686.71 5199.11 4687.6C5200.3 4688.34 5201.26 4689.59 5201.99 4691.36C5202.73 4693.14 5203.25 4695.5 5203.55 4698.45C5203.99 4701.26 5204.21 4704.8 5204.21 4709.09Z" fill="#1B1B1B"/>
<path d="M5492.19 4711.52C5492.19 4714.92 5491.6 4717.95 5490.42 4720.6C5489.23 4723.26 5487.61 4725.48 5485.54 4727.25C5483.62 4729.02 5481.26 4730.35 5478.45 4731.24C5475.8 4731.98 5473.06 4732.34 5470.26 4732.34H5445.45C5440.28 4732.34 5435.77 4731.83 5431.93 4730.79C5428.24 4729.76 5424.77 4727.91 5421.52 4725.26C5418.42 4722.45 5415.39 4718.76 5412.44 4714.18C5409.49 4709.45 5406.16 4703.4 5402.47 4696.02L5331.14 4561.99C5327.01 4554.02 5322.8 4545.45 5318.51 4536.3C5314.23 4526.99 5310.39 4517.99 5307 4509.27H5306.55C5307.14 4519.91 5307.59 4530.54 5307.88 4541.17C5308.18 4551.66 5308.32 4562.51 5308.32 4573.74V4723.71C5308.32 4725.18 5307.88 4726.51 5307 4727.69C5306.26 4728.87 5304.85 4729.91 5302.79 4730.79C5300.87 4731.53 5298.21 4732.12 5294.81 4732.57C5291.42 4733.01 5287.06 4733.23 5281.74 4733.23C5276.57 4733.23 5272.29 4733.01 5268.89 4732.57C5265.5 4732.12 5262.84 4731.53 5260.92 4730.79C5259 4729.91 5257.67 4728.87 5256.93 4727.69C5256.19 4726.51 5255.82 4725.18 5255.82 4723.71V4466.08C5255.82 4459.14 5257.82 4453.97 5261.81 4450.57C5265.94 4447.03 5270.96 4445.25 5276.87 4445.25H5308.1C5313.72 4445.25 5318.44 4445.77 5322.28 4446.8C5326.12 4447.69 5329.52 4449.24 5332.47 4451.46C5335.57 4453.67 5338.45 4456.77 5341.11 4460.76C5343.77 4464.6 5346.5 4469.4 5349.31 4475.16L5405.13 4579.94C5408.38 4586.29 5411.55 4592.56 5414.66 4598.77C5417.9 4604.82 5421.01 4610.95 5423.96 4617.15C5426.91 4623.21 5429.79 4629.19 5432.6 4635.1C5435.4 4641 5438.14 4646.91 5440.79 4652.82H5441.02C5440.57 4642.48 5440.2 4631.7 5439.91 4620.48C5439.76 4609.25 5439.69 4598.55 5439.69 4588.36V4453.89C5439.69 4452.42 5440.13 4451.09 5441.02 4449.91C5441.9 4448.72 5443.38 4447.69 5445.45 4446.8C5447.51 4445.92 5450.25 4445.33 5453.64 4445.03C5457.04 4444.59 5461.4 4444.37 5466.71 4444.37C5471.73 4444.37 5475.94 4444.59 5479.34 4445.03C5482.74 4445.33 5485.32 4445.92 5487.09 4446.8C5489.01 4447.69 5490.34 4448.72 5491.08 4449.91C5491.82 4451.09 5492.19 4452.42 5492.19 4453.89V4711.52Z" fill="#1B1B1B"/>
<path d="M988.591 4252.32H5912.33V4316.27H988.591V4252.32Z" fill="#52A02B"/>
</svg>
